Coordinates
version=1
nRows=16
nColumns=38
inDegrees=no

Units are S.I. units (second, meters, Newtons, ...)
If the header above contains a line with 'inDegrees', this indicates whether rotational values are in degrees (yes) or radians (no).

endheader
time	pelvis_tilt	pelvis_list	pelvis_rotation	pelvis_tx	pelvis_ty	pelvis_tz	hip_flexion_r	hip_adduction_r	hip_rotation_r	knee_angle_r	ankle_angle_r	subtalar_angle_r	mtp_angle_r	hip_flexion_l	hip_adduction_l	hip_rotation_l	knee_angle_l	ankle_angle_l	subtalar_angle_l	mtp_angle_l	lumbar_extension	lumbar_bending	lumbar_rotation	arm_flex_r	arm_add_r	arm_rot_r	elbow_flex_r	pro_sup_r	wrist_flex_r	wrist_dev_r	arm_flex_l	arm_add_l	arm_rot_l	elbow_flex_l	pro_sup_l	wrist_flex_l	wrist_dev_l
0.025	-0.163184	-0.0433496	0.0742983	1.14913	0.972148	-0.308824	1.02049	-0.144261	-0.21739	-2.01208	0.334138	0.1	4.5289e-06	0.157748	-0.0593155	-0.239271	-0.631454	0.576205	0.1	-5.25605e-07	-0.0982807	-0.00799326	-0.233096	-0.722685	-0.096578	-0.377618	1.10389	1.17916	0.00630181	-0.00866287	-0.216722	-0.341372	-0.0434247	2.33952	1.52399	0.00718309	0.011921
0.033333	-0.181801	-0.0692582	0.045353	1.15116	0.976248	-0.308203	1.05518	-0.106058	-0.227009	-1.90852	0.331554	0.1	4.5289e-06	0.105606	-0.0863516	-0.284789	-0.572179	0.478615	0.1	-5.25605e-07	-0.0697931	0.0282822	-0.227098	-0.745695	-0.0978121	-0.406162	1.12354	1.17227	0.00630181	-0.00866287	-0.19961	-0.329068	-0.0313979	2.39641	1.53981	0.00718309	0.011921
0.041667	-0.200242	-0.091227	0.0165434	1.1533	0.980864	-0.307395	1.08317	-0.0692953	-0.234709	-1.79882	0.329417	0.1	4.5289e-06	0.057953	-0.108097	-0.326037	-0.518801	0.379304	0.1	-5.25605e-07	-0.0425171	0.061046	-0.220797	-0.768578	-0.100906	-0.429988	1.14405	1.16731	0.00630181	-0.00866287	-0.186144	-0.318185	-0.0175205	2.45135	1.55613	0.00718309	0.011921
0.05	-0.218452	-0.109193	-0.0120061	1.15549	0.985743	-0.306447	1.10446	-0.034123	-0.240541	-1.68308	0.327725	0.1	4.5289e-06	0.0148337	-0.124499	-0.362722	-0.471539	0.278714	0.1	-5.25605e-07	-0.0165066	0.0902063	-0.214259	-0.791301	-0.10578	-0.449171	1.16538	1.16425	0.00630181	-0.00866287	-0.176266	-0.308746	-0.00180532	2.50425	1.57292	0.00718309	0.011921
0.058333	-0.236244	-0.122997	-0.0399171	1.15766	0.990639	-0.305419	1.11903	-0.000975946	-0.244715	-1.56157	0.326473	0.1	4.5289e-06	-0.0236398	-0.135438	-0.393989	-0.431041	0.17823	0.1	-5.25605e-07	0.00806517	0.115508	-0.20769	-0.813751	-0.112188	-0.463938	1.18744	1.16298	0.00630181	-0.00866287	-0.169807	-0.300814	0.0156836	2.55479	1.59013	0.00718309	0.011921
0.066667	-0.253252	-0.132415	-0.0664987	1.15974	0.99534	-0.304388	1.12685	0.0293762	-0.247731	-1.43494	0.325656	0.1	4.5289e-06	-0.0573131	-0.140766	-0.418305	-0.398448	0.0803318	0.1	-5.25605e-07	0.0308649	0.136534	-0.201459	-0.835695	-0.119659	-0.474717	1.21	1.16339	0.00630181	-0.00866287	-0.166476	-0.294495	0.0347746	2.60232	1.60761	0.00718309	0.011921
0.075	-0.268921	-0.137241	-0.0907992	1.16165	0.999678	-0.303449	1.12788	0.0559181	-0.250452	-1.30426	0.325203	0.1	4.5289e-06	-0.0860254	-0.140406	-0.433712	-0.375317	-0.0116537	0.1	-5.25605e-07	0.0514125	0.15278	-0.196058	-0.856764	-0.1275	-0.482116	1.23267	1.16538	0.00630181	-0.00866287	-0.165908	-0.289916	0.0551366	2.64582	1.62514	0.00718309	0.011921
0.083333	-0.282587	-0.137389	-0.111754	1.16333	1.00353	-0.302707	1.12218	0.0775937	-0.254062	-1.17109	0.324846	0.1	4.5289e-06	-0.109634	-0.134478	-0.43836	-0.363457	-0.0941535	0.1	-5.25605e-07	0.0691414	0.163786	-0.192006	-0.876472	-0.134864	-0.486854	1.2549	1.16882	0.00630181	-0.00866287	-0.167749	-0.287184	0.0762513	2.68399	1.64228	0.00718309	0.011921
0.091667	-0.293592	-0.132988	-0.128392	1.16477	1.00681	-0.302263	1.10995	0.0935513	-0.259902	-1.03749	0.324027	0.1	4.5289e-06	-0.128025	-0.123399	-0.431144	-0.364695	-0.164153	0.1	-5.25605e-07	0.0834971	0.169284	-0.189731	-0.89427	-0.140867	-0.489657	1.27605	1.17353	0.00630181	-0.00866287	-0.171743	-0.286337	0.0974192	2.71532	1.65836	0.00718309	0.011921
0.1	-0.301406	-0.124445	-0.140042	1.16596	1.0095	-0.30219	1.09165	0.10337	-0.269197	-0.90595	0.321866	0.1	4.5289e-06	-0.141104	-0.107943	-0.41224	-0.380641	-0.219854	0.1	-5.25605e-07	0.094044	0.169327	-0.189448	-0.909614	-0.144723	-0.491156	1.29546	1.1791	0.00630181	-0.00866287	-0.177787	-0.287292	0.117805	2.73835	1.67238	0.00718309	0.011921
0.108333	-0.305725	-0.112446	-0.146476	1.16692	1.01158	-0.302519	1.06803	0.107182	-0.282776	-0.779267	0.317278	0.1	4.5289e-06	-0.148803	-0.0892215	-0.383256	-0.412463	-0.261007	0.1	-5.25605e-07	0.100539	0.164385	-0.191086	-0.922041	-0.145882	-0.491802	1.31255	1.18485	0.00630181	-0.00866287	-0.185936	-0.289807	0.136511	2.75181	1.68306	0.00718309	0.011921
0.116667	-0.306501	-0.097939	-0.147974	1.16768	1.01307	-0.303229	1.04006	0.105671	-0.300881	-0.660352	0.30918	0.1	4.5289e-06	-0.151142	-0.068615	-0.347038	-0.460677	-0.288841	0.1	-5.25605e-07	0.102944	0.155358	-0.194256	-0.931231	-0.144126	-0.491824	1.32696	1.18981	0.00630181	-0.00866287	-0.196355	-0.293473	0.152672	2.75488	1.68905	0.00718309	0.011921
0.125	-0.303902	-0.082069	-0.145294	1.16827	1.01403	-0.304248	1.00885	0.0999885	-0.323008	-0.552018	0.296721	0.1	4.5289e-06	-0.148316	-0.0476881	-0.307302	-0.525019	-0.305683	0.1	-5.25605e-07	0.101386	0.143521	-0.198278	-0.937031	-0.13961	-0.491222	1.33855	1.19293	0.00630181	-0.00866287	-0.209239	-0.297747	0.165538	2.74725	1.68923	0.00718309	0.011921
0.133333	-0.298226	-0.0660829	-0.139564	1.16871	1.0145	-0.30546	0.975485	0.0915992	-0.347856	-0.456766	0.279485	0.1	4.5289e-06	-0.14081	-0.0280724	-0.268115	-0.604395	-0.314375	0.1	-5.25605e-07	0.0960712	0.130392	-0.202247	-0.939447	-0.132842	-0.489807	1.34743	1.19332	0.00630181	-0.00866287	-0.224731	-0.302012	0.174548	2.72916	1.68303	0.00718309	0.011921
0.141667	-0.289803	-0.0512038	-0.132136	1.16902	1.01451	-0.306728	0.940886	0.0820624	-0.373479	-0.376654	0.257653	0.1	4.5289e-06	-0.12945	-0.0113015	-0.233228	-0.696926	-0.317643	0.1	-5.25605e-07	0.0872205	0.117532	-0.205142	-0.938615	-0.124607	-0.487267	1.35389	1.19052	0.00630181	-0.00866287	-0.242855	-0.305654	0.179369	2.70131	1.6708	0.00718309	0.011921
0.15	-0.278933	-0.0384978	-0.124411	1.16919	1.01408	-0.307923	0.905797	0.0728145	-0.397556	-0.313228	0.232077	0.1	4.5289e-06	-0.115352	0.00134224	-0.205565	-0.800138	-0.317577	0.1	-5.25605e-07	0.0750437	0.106356	-0.205944	-0.934744	-0.115858	-0.483248	1.35834	1.18475	0.00630181	-0.00866287	-0.263482	-0.308132	0.179932	2.66474	1.65395	0.00718309	0.011921
